<mxfile host="app.diagrams.net" modified="2023-08-30T00:08:29.887Z" agent="Mozilla/5.0 (Windows NT 10.0; Win64; x64) AppleWebKit/537.36 (KHTML, like Gecko) Chrome/116.0.0.0 Safari/537.36" etag="1LUJ40yKNlAzU15YwNjY" version="21.7.0" type="device">
  <diagram id="R2lEEEUBdFMjLlhIrx00" name="Page-1">
    <mxGraphModel dx="574" dy="303" grid="1" gridSize="10" guides="1" tooltips="1" connect="1" arrows="1" fold="1" page="1" pageScale="1" pageWidth="850" pageHeight="1100" math="0" shadow="0" extFonts="Permanent Marker^https://fonts.googleapis.com/css?family=Permanent+Marker">
      <root>
        <mxCell id="0" />
        <mxCell id="1" parent="0" />
        <mxCell id="nH5qJOS06d4WZ_lGImFX-1" value="Aluno" style="whiteSpace=wrap;html=1;aspect=fixed;labelBackgroundColor=none;fillColor=#182E3E;strokeColor=#FFFFFF;fontColor=#FFFFFF;" vertex="1" parent="1">
          <mxGeometry x="130" y="130" width="120" height="120" as="geometry" />
        </mxCell>
        <mxCell id="nH5qJOS06d4WZ_lGImFX-2" value="" style="endArrow=none;html=1;rounded=0;labelBackgroundColor=none;strokeColor=#23445D;fontColor=default;" edge="1" parent="1">
          <mxGeometry width="50" height="50" relative="1" as="geometry">
            <mxPoint x="132" y="120" as="sourcePoint" />
            <mxPoint x="132" y="110" as="targetPoint" />
            <Array as="points">
              <mxPoint x="132" y="130" />
              <mxPoint x="132" y="120" />
            </Array>
          </mxGeometry>
        </mxCell>
        <mxCell id="nH5qJOS06d4WZ_lGImFX-3" value="" style="ellipse;shape=doubleEllipse;whiteSpace=wrap;html=1;aspect=fixed;strokeColor=#FFFFFF;fontColor=#FFFFFF;fillColor=#182E3E;" vertex="1" parent="1">
          <mxGeometry x="128" y="100" width="10" height="10" as="geometry" />
        </mxCell>
        <mxCell id="nH5qJOS06d4WZ_lGImFX-6" value="" style="ellipse;shape=doubleEllipse;whiteSpace=wrap;html=1;aspect=fixed;strokeColor=#1A1A1A;fontColor=#FFFFFF;fillColor=none;" vertex="1" parent="1">
          <mxGeometry x="140" y="100" width="10" height="10" as="geometry" />
        </mxCell>
        <mxCell id="nH5qJOS06d4WZ_lGImFX-8" value="&lt;font color=&quot;#1a1a1a&quot;&gt;&lt;font style=&quot;font-size: 7px;&quot;&gt;cpf&lt;/font&gt;&lt;br&gt;&lt;/font&gt;" style="text;html=1;strokeColor=none;fillColor=none;align=center;verticalAlign=middle;whiteSpace=wrap;rounded=0;fontColor=#FFFFFF;rotation=-90;" vertex="1" parent="1">
          <mxGeometry x="119" y="84" width="19" height="11" as="geometry" />
        </mxCell>
        <mxCell id="nH5qJOS06d4WZ_lGImFX-9" value="&lt;font color=&quot;#1a1a1a&quot;&gt;&lt;font style=&quot;font-size: 7px;&quot;&gt;nome&lt;/font&gt;&lt;br&gt;&lt;/font&gt;" style="text;html=1;strokeColor=none;fillColor=none;align=center;verticalAlign=middle;whiteSpace=wrap;rounded=0;fontColor=#FFFFFF;rotation=270;" vertex="1" parent="1">
          <mxGeometry x="132.5" y="88.5" width="19" as="geometry" />
        </mxCell>
        <mxCell id="nH5qJOS06d4WZ_lGImFX-20" value="" style="endArrow=none;html=1;rounded=0;labelBackgroundColor=none;strokeColor=#23445D;fontColor=default;" edge="1" parent="1">
          <mxGeometry width="50" height="50" relative="1" as="geometry">
            <mxPoint x="144.9" y="120" as="sourcePoint" />
            <mxPoint x="144.9" y="110" as="targetPoint" />
            <Array as="points">
              <mxPoint x="144.9" y="130" />
              <mxPoint x="144.9" y="120" />
            </Array>
          </mxGeometry>
        </mxCell>
        <mxCell id="nH5qJOS06d4WZ_lGImFX-23" value="" style="ellipse;shape=doubleEllipse;whiteSpace=wrap;html=1;aspect=fixed;strokeColor=#1A1A1A;fontColor=#FFFFFF;fillColor=none;" vertex="1" parent="1">
          <mxGeometry x="154" y="100" width="10" height="10" as="geometry" />
        </mxCell>
        <mxCell id="nH5qJOS06d4WZ_lGImFX-24" value="&lt;font color=&quot;#1a1a1a&quot;&gt;&lt;font style=&quot;font-size: 7px;&quot;&gt;email&lt;/font&gt;&lt;br&gt;&lt;/font&gt;" style="text;html=1;strokeColor=none;fillColor=none;align=center;verticalAlign=middle;whiteSpace=wrap;rounded=0;fontColor=#FFFFFF;rotation=270;" vertex="1" parent="1">
          <mxGeometry x="146.5" y="87.5" width="19" as="geometry" />
        </mxCell>
        <mxCell id="nH5qJOS06d4WZ_lGImFX-25" value="" style="endArrow=none;html=1;rounded=0;labelBackgroundColor=none;strokeColor=#23445D;fontColor=default;" edge="1" parent="1">
          <mxGeometry width="50" height="50" relative="1" as="geometry">
            <mxPoint x="158.9" y="120" as="sourcePoint" />
            <mxPoint x="158.9" y="110" as="targetPoint" />
            <Array as="points">
              <mxPoint x="158.9" y="130" />
              <mxPoint x="158.9" y="120" />
            </Array>
          </mxGeometry>
        </mxCell>
        <mxCell id="nH5qJOS06d4WZ_lGImFX-26" value="" style="ellipse;shape=doubleEllipse;whiteSpace=wrap;html=1;aspect=fixed;strokeColor=#1A1A1A;fontColor=#FFFFFF;fillColor=none;" vertex="1" parent="1">
          <mxGeometry x="167.5" y="100" width="10" height="10" as="geometry" />
        </mxCell>
        <mxCell id="nH5qJOS06d4WZ_lGImFX-27" value="&lt;font color=&quot;#1a1a1a&quot;&gt;&lt;span style=&quot;font-size: 7px;&quot;&gt;telefone&lt;br&gt;&lt;/span&gt;&lt;br&gt;&lt;/font&gt;" style="text;html=1;strokeColor=none;fillColor=none;align=center;verticalAlign=middle;whiteSpace=wrap;rounded=0;fontColor=#FFFFFF;rotation=-90;" vertex="1" parent="1">
          <mxGeometry x="167.5" y="84" width="19" as="geometry" />
        </mxCell>
        <mxCell id="nH5qJOS06d4WZ_lGImFX-28" value="" style="endArrow=none;html=1;rounded=0;labelBackgroundColor=none;strokeColor=#23445D;fontColor=default;" edge="1" parent="1">
          <mxGeometry width="50" height="50" relative="1" as="geometry">
            <mxPoint x="172.4" y="120" as="sourcePoint" />
            <mxPoint x="172.4" y="110" as="targetPoint" />
            <Array as="points">
              <mxPoint x="172.4" y="130" />
              <mxPoint x="172.4" y="120" />
            </Array>
          </mxGeometry>
        </mxCell>
        <mxCell id="nH5qJOS06d4WZ_lGImFX-29" value="" style="ellipse;shape=doubleEllipse;whiteSpace=wrap;html=1;aspect=fixed;strokeColor=#1A1A1A;fontColor=#FFFFFF;fillColor=none;" vertex="1" parent="1">
          <mxGeometry x="181" y="100" width="10" height="10" as="geometry" />
        </mxCell>
        <mxCell id="nH5qJOS06d4WZ_lGImFX-30" value="&lt;font color=&quot;#1a1a1a&quot;&gt;&lt;span style=&quot;font-size: 7px;&quot;&gt;data_nasc&lt;/span&gt;&lt;br&gt;&lt;/font&gt;" style="text;html=1;strokeColor=none;fillColor=none;align=center;verticalAlign=middle;whiteSpace=wrap;rounded=0;fontColor=#FFFFFF;rotation=-90;" vertex="1" parent="1">
          <mxGeometry x="174.5" y="80" width="19" as="geometry" />
        </mxCell>
        <mxCell id="nH5qJOS06d4WZ_lGImFX-31" value="" style="endArrow=none;html=1;rounded=0;labelBackgroundColor=none;strokeColor=#23445D;fontColor=default;" edge="1" parent="1">
          <mxGeometry width="50" height="50" relative="1" as="geometry">
            <mxPoint x="185.9" y="120" as="sourcePoint" />
            <mxPoint x="185.9" y="110" as="targetPoint" />
            <Array as="points">
              <mxPoint x="185.9" y="130" />
              <mxPoint x="185.9" y="120" />
            </Array>
          </mxGeometry>
        </mxCell>
        <mxCell id="nH5qJOS06d4WZ_lGImFX-32" value="" style="ellipse;shape=doubleEllipse;whiteSpace=wrap;html=1;aspect=fixed;strokeColor=#1A1A1A;fontColor=#FFFFFF;fillColor=none;" vertex="1" parent="1">
          <mxGeometry x="194" y="100" width="10" height="10" as="geometry" />
        </mxCell>
        <mxCell id="nH5qJOS06d4WZ_lGImFX-33" value="&lt;font color=&quot;#1a1a1a&quot;&gt;&lt;span style=&quot;font-size: 7px;&quot;&gt;cep&lt;/span&gt;&lt;br&gt;&lt;/font&gt;" style="text;html=1;strokeColor=none;fillColor=none;align=center;verticalAlign=middle;whiteSpace=wrap;rounded=0;fontColor=#FFFFFF;rotation=-90;" vertex="1" parent="1">
          <mxGeometry x="187.5" y="89" width="19" as="geometry" />
        </mxCell>
        <mxCell id="nH5qJOS06d4WZ_lGImFX-34" value="" style="endArrow=none;html=1;rounded=0;labelBackgroundColor=none;strokeColor=#23445D;fontColor=default;" edge="1" parent="1">
          <mxGeometry width="50" height="50" relative="1" as="geometry">
            <mxPoint x="198.9" y="120" as="sourcePoint" />
            <mxPoint x="198.9" y="110" as="targetPoint" />
            <Array as="points">
              <mxPoint x="198.9" y="130" />
              <mxPoint x="198.9" y="120" />
            </Array>
          </mxGeometry>
        </mxCell>
        <mxCell id="nH5qJOS06d4WZ_lGImFX-37" value="" style="ellipse;shape=doubleEllipse;whiteSpace=wrap;html=1;aspect=fixed;strokeColor=#1A1A1A;fontColor=#FFFFFF;fillColor=none;" vertex="1" parent="1">
          <mxGeometry x="207" y="100" width="10" height="10" as="geometry" />
        </mxCell>
        <mxCell id="nH5qJOS06d4WZ_lGImFX-38" value="&lt;font color=&quot;#1a1a1a&quot;&gt;&lt;span style=&quot;font-size: 7px;&quot;&gt;rua&lt;/span&gt;&lt;br&gt;&lt;/font&gt;" style="text;html=1;strokeColor=none;fillColor=none;align=center;verticalAlign=middle;whiteSpace=wrap;rounded=0;fontColor=#FFFFFF;rotation=-90;" vertex="1" parent="1">
          <mxGeometry x="200.5" y="88" width="19" as="geometry" />
        </mxCell>
        <mxCell id="nH5qJOS06d4WZ_lGImFX-39" value="" style="endArrow=none;html=1;rounded=0;labelBackgroundColor=none;strokeColor=#23445D;fontColor=default;" edge="1" parent="1">
          <mxGeometry width="50" height="50" relative="1" as="geometry">
            <mxPoint x="211.9" y="120" as="sourcePoint" />
            <mxPoint x="211.9" y="110" as="targetPoint" />
            <Array as="points">
              <mxPoint x="211.9" y="130" />
              <mxPoint x="211.9" y="120" />
            </Array>
          </mxGeometry>
        </mxCell>
        <mxCell id="nH5qJOS06d4WZ_lGImFX-48" value="" style="ellipse;shape=doubleEllipse;whiteSpace=wrap;html=1;aspect=fixed;strokeColor=#1A1A1A;fontColor=#FFFFFF;fillColor=none;" vertex="1" parent="1">
          <mxGeometry x="220" y="100" width="10" height="10" as="geometry" />
        </mxCell>
        <mxCell id="nH5qJOS06d4WZ_lGImFX-49" value="&lt;font color=&quot;#1a1a1a&quot;&gt;&lt;span style=&quot;font-size: 7px;&quot;&gt;bairro&lt;br&gt;&lt;/span&gt;&lt;br&gt;&lt;/font&gt;" style="text;html=1;strokeColor=none;fillColor=none;align=center;verticalAlign=middle;whiteSpace=wrap;rounded=0;fontColor=#FFFFFF;rotation=-90;" vertex="1" parent="1">
          <mxGeometry x="221.5" y="88" width="19" as="geometry" />
        </mxCell>
        <mxCell id="nH5qJOS06d4WZ_lGImFX-50" value="" style="endArrow=none;html=1;rounded=0;labelBackgroundColor=none;strokeColor=#23445D;fontColor=default;" edge="1" parent="1">
          <mxGeometry width="50" height="50" relative="1" as="geometry">
            <mxPoint x="224.9" y="120" as="sourcePoint" />
            <mxPoint x="224.9" y="110" as="targetPoint" />
            <Array as="points">
              <mxPoint x="224.9" y="130" />
              <mxPoint x="224.9" y="120" />
            </Array>
          </mxGeometry>
        </mxCell>
      </root>
    </mxGraphModel>
  </diagram>
</mxfile>
